# xmcd
#
# Track frame offsets: 
#        150
#        18825
#        40050
#        60430
#        83150
#        101300
#        121625
#        142775
#        164492
#        182342
#
# Disc length: 2736 seconds
#
# Revision: 0
# Processed by: cddbd v1.4PL0 Copyright (c) Steve Scherf et al.
# Submitted via: ExactAudioCopy v0.90b4
#
DISCID=660aae0a
DTITLE=Hermano Extranjero - Suma Petra
DYEAR=1998
DGENRE=Contemporary Christian
TTITLE0=Libertad sin ideologia
TTITLE1=Continente Americano
TTITLE2=Hermano Extranjero
TTITLE3=La Guerra
TTITLE4=Unidos
TTITLE5=Huahuat' amtasinani
TTITLE6=La Verdad es Jesucristo
TTITLE7=Mujer Virtuosa
TTITLE8=Senor de Senores
TTITLE9=Deseos de cambio
EXTD=
EXTT0=
EXTT1=
EXTT2=
EXTT3=
EXTT4=
EXTT5=
EXTT6=
EXTT7=
EXTT8=
EXTT9=
PLAYORDER=
